# xmcd CD database file
#
# Track frame offsets:
#	150
#	11052
#	19491
#	25077
#	37076
#	47928
#	60748
#	72015
#	83935
#	90522
#	104189
#	115202
#	123376
#	138149
#	158659
#	168900
#
# Disc length: 2562 seconds
#
# Revision: 0
# Processed by: cddbd v1.5.2PL0 Copyright (c) Steve Scherf et al.
# Submitted via: CDex 1.70beta2
#
DISCID=d60a0010
DTITLE=Michael Publig - Joy To The World!
DYEAR=1996
DGENRE=Jazz
TTITLE0=O Tannenbaum
TTITLE1=Stille Nacht! Heilige Nacht!
TTITLE2=Es ist ein Ros' entsprungen
TTITLE3=Ling, Glöckchen, Kligelingeling
TTITLE4=Corramso, Corramos!
TTITLE5=Bajuschki, Baju
TTITLE6=The First Noel
TTITLE7=Nu Ar det Jul Igen
TTITLE8=Go Tell It To The Mountain
TTITLE9=What Child Is Thsi? 8Greensleeves)
TTITLE10=God Rest You Merry, gentlemen
TTITLE11=Il Est Ne, le Divin Enfant
TTITLE12=Jingle Bells
TTITLE13=Adeste Fideles (O come, all ye faithful)
TTITLE14=Joy To The World
TTITLE15=Silent Night - Happy Night
EXTD=YEAR: 1996
EXTT0=
EXTT1=
EXTT2=
EXTT3=
EXTT4=
EXTT5=
EXTT6=
EXTT7=
EXTT8=
EXTT9=
EXTT10=
EXTT11=
EXTT12=
EXTT13=
EXTT14=
EXTT15=
PLAYORDER=
